<svg fill="none" height="542" viewBox="0 0 812 542" width="812" xmlns="http://www.w3.org/2000/svg"><path clip-rule="evenodd" d="m556.177 38.3717c7.378 3.1377 14.731 6.3354 22.052 9.6037 1.127.5027 2.056 1.4466 3.077 2.1865-1.203.6665-2.356 1.4537-3.618 1.9764-3.509 1.4531-7.12 2.6705-10.586 4.2132-4.813 2.1419-9.589 4.3837-14.279 6.7834-7.853 4.0188-15.462 8.5591-23.485 12.1908-6.324 2.8628-12.162 6.513-18.258 9.7308-9.478 5.002-18.864 10.1489-27.893 15.9565-5.305 3.413-10.979 6.248-16.404 9.483-12.6 7.512-25.21 15.009-37.695 22.71-7.334 4.524-14.43 9.433-21.641 14.158-7.439 4.875-14.878 9.751-22.335 14.601-5.278 3.433-10.603 6.793-15.872 10.239-6.641 4.344-13.239 8.754-19.871 13.113-4.917 3.232-9.918 6.341-14.775 9.661-7 4.785-13.902 9.715-20.849 14.578-3.81 2.666-7.683 5.247-11.431 7.999-9.485 6.963-19.03 13.855-28.331 21.06-6.616 5.126-12.868 10.722-19.293 16.095-3.685 3.082-7.466 6.053-11.073 9.223-5.901 5.185-11.616 10.583-17.55 15.728-15.14 13.124-29.03 27.5-42.578 42.225-4.177 4.541-8.426 9.023-12.44 13.706-5.539 6.464-10.945 13.045-16.288 19.673-2.362 2.93-4.511 6.042-6.616 9.165-5.91 8.77-12.088 17.385-17.512 26.449-4.774 7.978-8.764 16.434-12.94 24.76-6.451 12.861-11.146 26.367-14.639 40.323-1.394 5.568-1.682 11.206-1.373 16.826.26 4.742 1.119 9.495 2.174 14.139 1.486 6.54 4.671 12.209 9.95 16.55 3.937 3.236 8.358 4.78 13.454 3.786 6.218-1.213 12.109-3.338 18.043-5.621 10.293-3.961 19.85-9.216 29.207-14.872 6.077-3.673 11.773-7.978 17.636-12.005 4.622-3.175 9.351-6.211 13.824-9.585 3.505-2.643 6.699-5.701 10.018-8.59 2.284-1.988 4.544-4.005 6.819-6.004 4.55-3.995 9.247-7.838 13.587-12.051 1.865-1.81 3.552-4.199 4.357-6.642 3.503-10.636 7.626-20.997 12.349-31.146 5.921-12.723 13.117-24.713 21.046-36.229 5.022-7.295 10.884-14.007 16.283-21.047 6.967-9.083 15.085-17.176 22.353-25.968 5.743-6.947 12.507-12.725 18.766-19.073.692-.702 1.244-1.545 1.949-2.232 7.647-7.438 14.947-15.299 23.129-22.096 4.013-3.334 7.138-7.613 11.805-10.314 4.351-2.517 8.173-5.958 12.173-9.062.588-.457.873-1.304 1.732-2.065 9.239 1.535 17.412 5.015 25.571 8.528.805.347 1.55.882 2.245 1.429 1.549 1.219 1.747 3.07.583 4.525-1.34 1.674-2.704 3.332-3.969 5.062-4.188 5.725-8.527 11.353-12.444 17.26-3.536 5.332-6.59 10.983-9.867 16.488-.53.89-1.141 1.732-1.664 2.626-5.298 9.06-11.07 17.884-15.749 27.253-5.465 10.944-10.065 22.325-14.846 33.599-1.668 3.934-2.775 8.107-4.098 12.184-.251.774-.578 1.671-.407 2.403.314 1.338-.07 3.174 1.728 3.749 1.673.536 2.825-.165 4.015-1.574 4.993-5.911 9.72-11.82 12.44-19.33 2.407-6.646 6.097-12.821 9.114-19.254 3.178-6.778 6.195-13.633 9.356-20.42 1.09-2.342 2.365-4.602 3.621-6.863 3.516-6.33 7.056-12.648 10.607-18.959 3.687-6.551 7.359-13.112 11.118-19.623 1.611-2.791 3.414-5.472 5.148-8.191 6.674-10.464 13.295-20.963 20.058-31.37 3.987-6.136 8.183-12.137 12.324-18.172 2.801-4.083 5.624-8.152 8.521-12.168 3.717-5.153 7.486-10.272 11.299-15.355 1.663-2.216 4.052-2.951 6.754-2.816 5.232.262 10.464.551 15.699.757 1.411.056 1.391.71.885 1.631-.497.907-1.102 1.755-1.66 2.628-4.939 7.737-9.948 15.432-14.802 23.223-5.813 9.331-11.522 18.728-17.216 28.133-1.644 2.716-2.908 5.672-4.664 8.306-1.212 1.817-.56 2.639 1.004 3.3 3.349 1.416 6.734 2.749 10.099 4.127 1.04.426 2.041.963 3.102 1.323 1.96.665 3.656 1.345 5.906-.157 2.403-1.603 5.5-2.173 8.304-3.163 4.688-1.656 9.446-3.136 14.052-4.991 2.392-.964 4.381-3.013 6.803-3.802 5.652-1.84 9.936-5.917 15.029-8.647 1.313-.704 2.108-1.042 3.427-.244 1.83 1.106 3.834 1.92 5.707 2.961 6.701 3.724 13.757 5.992 21.535 5.522.8-.048 1.617.276 2.433.34 1.828.142 1.882 1.143 1.346 2.541-.846 2.207-1.709 4.41-2.431 6.658-.241.754-.072 1.639-.091 2.464.841-.04 1.813.18 2.5-.165 3.693-1.854 7.285-3.908 10.973-5.77 1.87-.944 3.855-1.671 5.815-2.426 7.676-2.956 15.714-4.617 23.761-5.994 2.651-.453 5.923-1.396 8.532 1.042.762.713 1.137.992.989 2.368-.474 4.388-.189 8.854-.541 13.263-.074.923.008 1.263.649 1.453.298.089.838-.275 1.124-.572 2.326-2.415 5.029-4.597 6.809-7.37 2.003-3.121 4.534-4.76 8.03-5.046 3.207-.262 6.596.298 9.611-.551 4.138-1.166 8.245.417 12.268-.663.143-.039.3-.117.432-.089 1.736.371 4.039.206 5.07 1.27 1.514 1.562-.571 3.158-1.428 4.586-4.758 7.925-9.601 15.799-14.36 23.722-2.702 4.498-5.325 9.045-7.926 13.602-.549.961-.858 2.061-1.254 3.106-.073.193-.03.431-.041.647.275.013.641.147.812.02 1.208-.9 2.572-1.689 3.524-2.819 5.3-6.298 11.537-11.649 17.55-17.194 6.555-6.046 13.449-11.755 20.497-17.222 2.437-1.89 3.548-3.445 2.367-6.35-1.761-4.334.103-6.94 3.596-9.774 9.073-7.361 18.667-13.897 28.625-19.945 6.041-3.668 12.301-6.863 18.851-9.591 6.418-2.674 12.924-4.982 19.761-6.018 8.71-1.321 17.443-1.348 25.971 1.476 7.126 2.36 12.075 7.42 16.474 13.18.244 4.09 3.257 7.284 2.951 11.868-.235 3.503.104 7.201-.242 10.827-.545 5.7-2.186 11.107-4.493 16.285-3.958 8.883-8.653 17.349-15.024 24.785-.382.446-.664.98-.961 1.492-3.408 5.875-8.025 10.796-12.358 15.962-4.508 5.378-8.555 11.138-12.951 16.614-4.078 5.08-8.22 10.123-12.571 14.969-5.225 5.819-10.61 11.503-16.094 17.08-5.93 6.031-11.87 12.075-18.142 17.741-7.337 6.628-14.829 13.122-22.639 19.176-7.343 5.69-14.909 11.209-22.906 15.901-5.93 3.479-12.001 6.822-18.551 9.393-8.135 3.194-16.251 3.454-24.421 2.209-3.888-.593-7.524-3.117-10.525-6.28-7.417-7.817-9.024-17.363-8.882-27.522.034-2.469.488-4.935.489-7.403 0-1.435-.548-2.28-2.063-.744-3.109 3.153-6.433 6.092-9.553 9.235-4.388 4.42-8.507 9.149-14.66 11.272-.91.314-1.717.925-2.626 1.239-2.005.692-4.039 1.22-6.033 2.035-2.612 1.067-5.838.918-8.784.813-4.522-.16-9.038-.654-13.539-1.164-1.481-.168-3.205-.472-4.268-1.367-.906-.764-1.971-1.869-.66-3.924 11.819-18.525 23.324-37.25 35.079-55.816 4.942-7.807 10.244-15.388 15.419-23.046 3.587-5.308 7.234-10.574 10.86-15.855 3.472-5.058 6.927-10.129 10.445-15.155.804-1.148 1.865-2.113 2.746-3.211.321-.401.464-.944.689-1.423-.648-.262-1.285-.696-1.947-.741-.709-.047-1.45.246-2.165.436-6.468 1.722-13.164 2.876-19.341 5.334-7.414 2.95-14.837 5.933-21.566 10.621-4.96 3.456-10.314 6.349-14.433 10.848-3.068 3.349-5.939 6.905-8.64 10.56-6.456 8.735-12.75 17.589-19.128 26.382-3.905 5.383-7.877 10.717-11.762 16.115-4.835 6.717-9.605 13.481-14.413 20.217-2.189 3.068-4.035 6.497-6.697 9.08-3.115 3.021-6.857 5.44-10.502 7.855-3.199 2.12-6.476 4.301-10.023 5.66-3.243 1.242-6.723 2.549-10.47 1.081-4.121-1.614-8.467-2.675-12.523-4.422-2.954-1.273-2.933-1.648-1.585-4.596 1.659-3.631 3.426-7.223 5.352-10.719 2.531-4.595 5.235-9.095 7.913-13.608 3.735-6.294 7.849-12.391 11.176-18.892 3.007-5.876 6.742-11.25 10.135-16.858 3.329-5.502 6.443-11.138 9.882-16.57 10.755-16.992 21.619-33.916 32.441-50.867.398-.624.867-1.216 1.172-1.882.234-.51.509-1.493.335-1.607-.54-.354-1.417-.714-1.93-.504-3.482 1.424-6.907 2.987-10.345 4.518-3.307 1.472-6.481 3.536-9.942 4.292-4.019.878-6.053 3.539-7.377 6.656-4.366 10.285-8.227 20.783-12.569 31.079-2.267 5.374-5.159 10.484-7.729 15.733-4.002 8.175-7.941 16.382-11.972 24.544-1.341 2.714-2.929 5.305-4.325 7.993-8.405 16.179-18.315 31.457-28.403 46.594-5.235 7.855-11.679 14.894-17.15 22.604-2.992 4.218-6.3 7.956-10.677 10.565-3.248 1.937-6.362 4.117-10.745 3.714-2.859-.263-5.644.356-8.676-.667-3.404-1.148-5.318-3.579-7.212-6.029-1.575-2.037-2.298-4.719-3.519-7.053-.368-.704-1.057-1.384-1.766-1.698-.279-.123-1.138.698-1.522 1.239-2.954 4.156-5.641 8.522-8.823 12.493-5.427 6.773-11.832 12.273-20.749 13.985-3.772.724-7.275 1.567-11.274-.117-4.83-2.033-7.142-5.677-8.691-10.09-1.92-5.467-1.267-11.174-.799-16.793.296-3.54 1.01-7.044 1.465-10.572.102-.788-.092-1.614-.149-2.422-.848.082-1.878-.117-2.513.294-2.984 1.931-5.916 3.953-8.76 6.086-4.929 3.696-9.91 7.341-14.635 11.288-9.915 8.278-19.561 16.882-29.542 25.079-8.04 6.604-16.445 12.761-24.62 19.202-5.386 4.243-10.559 8.76-15.996 12.934-7.814 6.001-16.03 11.437-24.193 16.957-6.417 4.34-13.266 7.813-20.064 11.374-4.227 2.214-8.98 3.448-13.54 4.995-3.538 1.2-7.084 2.809-10.731 3.167-6.819.668-13.568 2.404-20.584 1.122-5.551-1.014-10.702-2.691-15.779-5.18-7.1453-3.503-12.3709-9.033-17.2754-14.945-4.4097-5.315-7.518-11.372-9.1038-18.185-.6107-2.623-2.0409-5.076-2.5042-7.711-1.9984-11.369-1.9462-22.726-.0895-34.172 1.514-9.333 4.7555-18.112 7.7639-26.947 2.0418-5.996 5.1153-11.664 7.9948-17.344 2.8722-5.665 5.9609-11.229 9.1653-16.714 4.3639-7.47 8.5839-15.059 13.4949-22.162 5.543-8.015 11.751-15.573 17.732-23.281 3.672-4.734 7.392-9.434 11.215-14.045 3.782-4.564 7.636-9.076 11.614-13.469 4.5-4.971 9.112-9.845 13.79-14.649 4.357-4.473 8.836-8.829 13.311-13.184 8.042-7.825 15.998-15.745 24.231-23.365 5.234-4.845 10.881-9.243 16.379-13.799 7.712-6.391 15.334-12.901 23.229-19.059 6.144-4.793 12.149-9.797 18.811-13.911 1.854-1.145 3.472-2.669 5.219-3.99 6.224-4.705 12.391-9.488 18.703-14.07 6.197-4.499 12.569-8.757 18.818-13.186 3.349-2.372 6.511-5.016 9.915-7.302 7.839-5.262 15.789-10.358 23.665-15.566 5.476-3.622 10.894-7.333 16.358-10.975 2.732-1.822 5.49-3.609 8.269-5.359 6.721-4.233 13.732-8.072 20.081-12.802 3.208-2.39 6.807-4.079 9.921-6.601 3.065-2.482 6.635-4.343 9.985-6.473 8.78-5.583 17.505-11.257 26.36-16.718 7.471-4.607 15.116-8.9318 22.638-13.4572 2.694-1.6207 5.056-3.9583 7.915-5.103 6.089-2.4373 11.147-6.5757 16.902-9.55 3.871-2.0009 7.554-4.5411 11.386-6.5588 4.388-2.3109 8.791-4.6433 13.206-6.9314 4.666-2.418 9.395-4.715 14.12-7.019 5.48-2.6725 11.152-5.0044 16.419-8.0418 3.502-2.0189 7.166-3.6093 10.786-5.3045 4.188-1.9612 8.549-3.5602 12.874-5.2158.729-.2794 1.767-.3154 2.471-.0158zm171.509 185.2243c-3.734 3.697-7.732 7.133-11.364 10.922-6.483 6.764-12.591 13.895-19.197 20.532-8.452 8.492-16.116 17.654-23.726 26.863-6.637 8.03-13.13 16.192-19.371 24.533-5.75 7.684-11.22 15.588-16.563 23.563-8.687 12.965-16.879 26.25-23.516 40.401-1.982 4.227-4.059 8.413-4.612 13.34-.329 2.927 1.189 3.651 2.659 3.732 3.036.167 6.04.775 9.217.04 5.733-1.329 10.8-4.067 16.124-6.322 10.63-4.502 19.888-11.097 28.867-18.136 5.505-4.316 10.839-8.865 16.077-13.503 5.064-4.485 10.035-9.091 14.812-13.879 5.03-5.041 9.828-10.317 14.643-15.568 5.783-6.308 11.679-12.53 17.148-19.104 5.049-6.069 9.797-12.415 14.315-18.892 5.5-7.885 10.329-16.203 14.816-25.426.532-1.712 1.059-3.425 1.597-5.135 1.273-4.04.471-8.261 1.044-12.316.501-3.548-.685-6.646-1.522-9.783-.565-2.117-2.168-4.236-3.864-5.717-4.47-3.903-9.844-4.698-15.575-3.505-1.278.267-2.568.567-3.865.645l-.371.023c-2.838.18-5.556.496-7.773 2.692zm-292.217 63.808c-4.284 8.135-8.635 16.233-12.972 24.339-1.427 2.667-3.036 5.247-4.31 7.984-3.031 6.512-5.867 13.114-8.866 19.641-3.366 7.325-7.062 14.508-10.183 21.934-3.664 8.719-6.921 17.613-10.218 26.482-.654 1.761-1.027 3.772-.921 5.633.124 2.194 1.976 2.931 3.676 1.526 1.707-1.411 3.415-3.001 4.582-4.854 4.917-7.809 9.655-15.732 14.412-23.641 3.005-4.997 5.957-10.026 8.872-15.075 1.216-2.108 2.343-4.274 3.39-6.472 4.259-8.946 8.474-17.914 12.701-26.876 3.502-7.424 7.083-14.812 10.43-22.305.736-1.648 1.621-3.922-1.733-5.325-1.434-1.164-3.004-2.198-4.272-3.522-2.224-2.324-3.133-2.233-4.588.531zm-99.717 43.217c-.577.212-1.319.263-1.706.66-3.111 3.199-6.498 6.208-9.146 9.763-4.86 6.526-10.676 12.225-15.382 18.919-4.067 5.784-8.59 11.267-12.309 17.316-.351.572-.451 1.299-.667 1.955.651.064 1.323.261 1.95.167 1.313-.197 2.698-.336 3.882-.875 2.63-1.197 5.82-2.044 7.588-4.073 4.25-4.879 7.812-10.356 11.989-16.121 2.726-3.491 5.49-6.953 8.168-10.481 3.494-4.601 3.563-10.566 6.056-15.581.192-.384-.267-1.092-.423-1.649z" fill="#ed1d24" fill-rule="evenodd"/><path clip-rule="evenodd" d="m668.177 185.848c.483.164 1.13-.162 1.703-.248 4.275-.642 8.542-1.348 12.83-1.877 1.189-.146 2.494.067 3.653.42 1.338.408 1.688 1.216.805 2.648-3.526 5.717-6.911 11.522-10.516 17.559-6.327 10.688-12.476 21.115-18.65 31.529-1.042 1.757-2.041 3.58-3.356 5.119-.652.762-2.109 1.509-2.978 1.306-6.88-1.607-13.935-1.17-20.875-1.985-1.237-.145-2.523.183-3.789.219-1.306.038-1.946-.983-1.213-2.023 4.848-6.875 9.771-13.697 14.592-20.592 1.847-2.642 3.373-5.512 5.254-8.128 3.187-4.433 6.553-8.738 9.818-13.115 1.985-2.661 3.911-5.367 5.888-8.035 1.704-2.3 3.705-3.862 6.834-2.797z" fill="#ed1d24" fill-rule="evenodd"/><path d="m462.104 452.8h2.664v22.896h14.112v2.304h-16.776zm78.799 0h2.664v25.2h-2.664zm71.127 2.304v9.9h13.032v2.304h-13.032v10.692h-2.664v-25.2h17.28v2.304zm95.538 20.592v2.304h-17.82v-25.2h17.28v2.304h-14.616v8.964h13.032v2.268h-13.032v9.36z" fill="#000"/></svg>